<?xml version="1.0" encoding="UTF-8"?>
<svg width="752pt" height="752pt" version="1.1" viewBox="0 0 752 752" xmlns="http://www.w3.org/2000/svg">
 <g fill="#644236">
  <path d="m558.95 321.78c-2.0352-1.4688-4.9258-3.5039-8.5234-5.9688l-1.6562-1.1836c-0.23828-0.1875-0.51953-0.33203-0.80469-0.47266-7.3398-5.1602-17.051-11.934-28.18-19.605l-10.941-7.5781v-29.598c0-3.5977-2.9375-6.5352-6.5352-6.5352h-45.367l-18.422-12.836c-19.605-13.641-36.891-25.668-47.547-33.008-8.9492-6.2969-20.98-6.2969-29.93-0.046876l-66.066 45.844h-45.227c-3.5977 0-6.5352 2.9375-6.5352 6.5352v29.457l-39.211 27.277c-0.28516 0.14062-0.56641 0.33203-0.85156 0.51953l-9.9453 6.9609c-0.33203 0.23828-1.3242 1.2773-1.6094 1.5625-3.3203 4.3594-5.0234 9.6133-5.0234 15.25v187.73c0 5.7305 1.8008 11.035 5.0195 15.105 4.8789 6.7266 12.359 10.562 20.648 10.562h327.53c8.2891 0 15.77-3.8359 20.457-10.324 3.4102-4.3086 5.2109-9.6133 5.2109-15.344v-187.73c0-5.7305-1.8008-11.035-5.2109-15.344-0.37891-0.47266-0.80469-0.89844-1.2773-1.2305zm-50.105-18.848 3.457 2.4141c11.461 7.9102 21.406 14.871 28.793 20.031 0.28516 0.1875 0.56641 0.37891 0.85156 0.51953l0.99609 0.66406c0.28516 0.1875 0.47266 0.33203 0.71094 0.51953-8.3359 5.7773-20.602 14.301-34.809 24.199zm-140.32-87.234c4.4531-3.125 10.418-3.125 14.918 0.046876 10.703 7.3867 27.988 19.371 47.547 33.008l2.9844 2.082h-116.03zm-112.24 48.258h239.49v96.422c-14.445 10.039-30.074 20.887-45.273 31.445l-67.059 46.602c-4.4531 3.125-10.418 3.125-14.871-0.046875l-112.29-78zm-46.363 61.945c0.28516-0.14063 0.56641-0.33203 0.85156-0.51953l32.441-22.59v48.449l-34.902-24.246zm-10.23 200.18v-187.73c0-0.42578 0.14062-0.80469 0.1875-1.2305l136.86 95.094-136.91 95c0-0.37891-0.14062-0.75781-0.14062-1.1367zm340.08 12.551h-327.53c-1.5625 0-2.9375-0.51953-4.3555-1.043l140.27-97.414 12.836 8.9023c4.5 3.1719 9.7539 4.7344 15.012 4.7344 5.2578 0 10.465-1.5625 14.918-4.7344l12.93-8.9961 140.27 97.508c-1.3711 0.57031-2.793 1.043-4.3555 1.043zm12.551-12.551c0 0.42578-0.14062 0.75781-0.1875 1.1836l-136.77-95.094 42.621-29.598c36.512-25.383 75.914-52.711 94.195-65.449 0.046875 0.42578 0.1875 0.80469 0.1875 1.2773l0.003906 187.68z"/>
  <path d="m400.77 392.48c5.7305-2.1328 10.75-5.0664 14.918-8.7148 4.168-3.6953 7.1992-7.3867 8.9023-10.988 0.23828-0.51953 0.23828-1.0898-0.09375-1.5625-0.28516-0.47266-0.80469-0.75781-1.375-0.75781h-8.8086c-0.51953 0-1.043 0.28516-1.3242 0.71094-2.6992 3.8359-6.8203 7.1992-12.312 9.8984-5.4922 2.7461-12.457 4.1211-20.695 4.1211-7.7188 0-14.871-1.3242-21.168-3.9766-6.2031-2.6055-10.988-6.6758-14.254-12.125-3.3164-5.4922-4.9727-12.125-4.9727-19.75 0-7.293 1.7031-14.254 5.0195-20.648 3.3164-6.3477 8.0039-11.27 13.969-14.633 6.0625-3.4102 12.785-5.1133 20.078-5.1133 6.3477 0 12.266 1.375 17.523 4.0742 5.2109 2.6523 9.1875 6.2969 11.793 10.703 2.6055 4.4531 3.9297 9.2812 3.9297 14.398 0 4.3555-1.043 8.668-3.0781 12.836-2.0352 4.1211-4.832 7.4336-8.2891 9.8516-3.125 2.2266-4.8789 2.6523-5.8242 2.6523-0.51953 0-0.89844-0.14062-1.2773-0.51953-0.33203-0.33203-0.47266-0.66406-0.47266-1.043 0-0.23828 0.1875-1.4219 1.4219-7.2461l7.0547-32.773c0.09375-0.47266 0-0.99609-0.33203-1.375-0.33203-0.37891-0.75781-0.61719-1.2773-0.61719h-8.7617c-0.75781 0-1.4219 0.51953-1.6094 1.2773l-0.89844 3.9766c-1.5156-1.8008-3.1719-3.2188-5.0195-4.2617-6.4414-3.6953-13.875-3.1719-21.312 1.7539-4.168 2.7461-7.6719 6.8672-10.418 12.312-2.7461 5.3984-4.168 10.891-4.168 16.293 0 4.4531 0.89844 8.5703 2.7461 12.266 1.8477 3.7891 4.2617 6.6289 7.2461 8.4766 5.6836 3.5039 11.98 3.7422 17.996 0.33203 1.8477-1.043 3.5977-2.3203 5.2109-3.8359 0.14062 0.56641 0.33203 1.043 0.56641 1.4688 0.80469 1.5625 2.0352 2.793 3.7891 3.6484 1.6094 0.80469 3.6953 1.1836 6.1562 1.1836 7.4844 0 14.445-3.5039 20.648-10.418 6.9141-7.625 10.371-16.434 10.371-26.238 0-6.8672-1.6562-13.309-4.9727-19.18-3.8359-6.8203-9.1875-11.98-15.863-15.438-6.6289-3.4102-14.207-5.1133-22.496-5.1133-10.703 0-19.938 2.4609-27.469 7.293-7.5312 4.832-13.449 11.887-17.523 20.98-3.3164 7.3867-5.0195 15.25-5.0195 23.395 0 7.3398 1.4219 14.254 4.2148 20.602 2.2734 5.0195 5.6836 9.5664 10.133 13.449 4.4531 3.8828 9.8984 6.7734 16.195 8.7148 6.2031 1.8945 13.117 2.8398 20.457 2.8398 8.0547-0.003906 15.016-1.0938 20.746-3.1797zm-17.523-41.816c-1.0898 3.0781-2.5117 5.6836-4.2148 7.6719-1.7031 1.9883-3.5039 3.5039-5.3047 4.5-4.3555 2.3203-7.957 1.8477-11.035-1.7031-1.8477-2.1797-2.793-5.3047-2.793-9.3281 0-2.6055 0.51953-5.5391 1.4688-8.7617 0.99609-3.1719 2.3203-5.8711 3.9297-8.0508 1.5625-2.1328 3.2188-3.6953 4.832-4.6406 1.6094-0.89844 3.2695-1.375 5.0664-1.375 2.6992 0 4.9258 0.99609 6.8203 3.125 1.8945 2.1328 2.8906 5.2109 2.8906 9.1875 0.046875 3.125-0.52344 6.2969-1.6602 9.375z"/>
 </g>
</svg>
